# xmcd
#
# Track frame offsets:
#	150
#	20952
#	39926
#	56432
#	74490
#	86489
#	98427
#	112829
#	126775
#	144179
#
# Disc length: 2148 seconds
#
# Revision: 1
# Processed by: cddbd v1.5.2PL0 Copyright (c) Steve Scherf et al.
# Submitted via: audiograbber 1.83.01
#
DISCID=7a08620a
DTITLE=Hal Brolund - Worn Out Shoes
DYEAR=2008
DGENRE=
TTITLE0=Worn Out Shoes
TTITLE1=Call of Angels
TTITLE2=Goin up to Glory
TTITLE3=Poulet Shack
TTITLE4=Automobile
TTITLE5=Let Me In
TTITLE6=Somebody on Your Bond
TTITLE7=I Can't Cut That Bun
TTITLE8=Atlanta Moan
TTITLE9=I Am the Lucky One
EXTD=
EXTT0=
EXTT1=
EXTT2=
EXTT3=
EXTT4=
EXTT5=
EXTT6=
EXTT7=
EXTT8=
EXTT9=
PLAYORDER=
